<svg width="1280" height="1112" viewBox="0 0 1280 1112" fill="none" xmlns="http://www.w3.org/2000/svg">
<path d="M-478.454 590.063C-434.472 551.484 -246.722 247.801 457.143 418.213C1161.01 588.625 1354.43 458.927 1438.6 173.654" stroke="url(#paint0_linear_6_8973)" stroke-width="1.11256" stroke-miterlimit="10"/>
<path d="M-478.081 579.46C-436.192 542.696 -243.476 254.15 454.54 428.563C1152.56 602.976 1351.09 436.323 1431.32 164.582" stroke="url(#paint1_linear_6_8973)" stroke-width="1.11256" stroke-miterlimit="10"/>
<path d="M-477.671 568.866C-437.881 533.942 -240.248 260.627 452.013 439.366C1144.28 618.105 1347.91 414.569 1424.12 156.41" stroke="#6C1893" stroke-width="1.11256" stroke-miterlimit="10"/>
<path d="M-477.262 558.262C-439.561 525.174 -237.029 267.106 449.486 450.158C1136 633.21 1344.73 392.804 1416.93 148.238" stroke="url(#paint2_linear_6_8973)" stroke-width="1.11256" stroke-miterlimit="10"/>
<path d="M-476.854 547.652C-441.251 516.404 -233.803 273.567 446.957 460.933C1127.72 648.299 1341.55 371.022 1409.73 140.038" stroke="#6C1893" stroke-width="1.11256" stroke-miterlimit="10"/>
<path d="M-476.453 537.061C-442.939 507.65 -230.584 280.058 444.412 471.739C1119.41 663.421 1338.35 349.271 1402.52 131.881" stroke="#6C1893" stroke-width="1.11256" stroke-miterlimit="10"/>
<path d="M-476.044 526.451C-444.629 498.879 -227.356 286.531 441.885 482.527C1111.13 678.522 1335.17 327.501 1395.33 123.693" stroke="#6C1893" stroke-width="1.11256" stroke-miterlimit="10"/>
<path d="M-475.635 515.846C-446.31 490.111 -224.13 292.996 439.356 493.306C1102.84 693.615 1331.98 305.723 1388.13 115.509" stroke="#6C1893" stroke-width="1.11256" stroke-miterlimit="10"/>
<path d="M-475.226 505.237C-447.999 481.341 -220.911 299.471 436.828 504.093C1094.57 708.716 1328.79 283.955 1380.95 107.32" stroke="#6C1893" stroke-width="1.11256" stroke-miterlimit="10"/>
<path d="M-474.816 494.643C-449.679 472.585 -217.684 305.948 434.292 514.898C1086.27 723.848 1325.6 262.202 1373.74 99.1618" stroke="#6C1893" stroke-width="1.11256" stroke-miterlimit="10"/>
<path d="M-474.407 484.036C-451.369 463.817 -214.456 312.423 431.763 525.675C1077.98 738.928 1322.42 240.423 1366.55 90.964" stroke="url(#paint3_linear_6_8973)" stroke-width="1.11256" stroke-miterlimit="10"/>
<path d="M-474.007 473.43C-453.067 455.05 -211.248 318.889 429.227 536.466C1069.7 754.043 1319.23 218.656 1359.34 82.7915" stroke="#6C1893" stroke-width="1.11256" stroke-miterlimit="10"/>
<path d="M-473.598 462.835C-454.747 446.292 -208.019 325.376 426.7 547.267C1061.42 769.159 1316.05 196.9 1352.15 74.6175" stroke="#6C1893" stroke-width="1.11256" stroke-miterlimit="10"/>
<path d="M-473.189 452.226C-456.437 437.521 -204.793 331.837 424.162 558.044C1053.12 784.251 1312.86 175.132 1344.95 66.431" stroke="#6C1893" stroke-width="1.11256" stroke-miterlimit="10"/>
<path d="M-472.78 441.62C-458.117 428.753 -201.565 338.314 421.634 568.835C1044.83 799.356 1309.67 153.367 1337.75 58.2468" stroke="#6C1893" stroke-width="1.11256" stroke-miterlimit="10"/>
<path d="M-472.37 431.024C-459.806 419.995 -198.346 344.789 419.108 579.635C1036.56 814.481 1306.49 131.61 1330.56 50.0835" stroke="#6C1893" stroke-width="1.11256" stroke-miterlimit="10"/>
<path d="M-471.961 420.418C-461.486 411.227 -195.119 351.266 416.58 590.426C1028.28 829.586 1303.3 109.833 1323.35 41.9009" stroke="#6C1893" stroke-width="1.11256" stroke-miterlimit="10"/>
<path d="M-471.562 409.814C-463.186 402.462 -191.901 357.744 414.032 601.208C1019.97 844.672 1300.12 88.0671 1316.16 33.7167" stroke="#6C1893" stroke-width="1.11256" stroke-miterlimit="10"/>
<path d="M-471.152 399.206C-464.865 393.691 -188.683 364.208 411.506 611.997C1011.69 859.785 1296.93 66.3001 1308.96 25.5437" stroke="url(#paint4_linear_6_8973)" stroke-width="1.11256" stroke-miterlimit="10"/>
<path d="M-470.743 388.609C-466.555 384.933 -185.455 370.694 408.978 622.796C1003.41 874.899 1293.74 44.5307 1301.76 17.3562" stroke="url(#paint5_linear_6_8973)" stroke-width="1.11256" stroke-miterlimit="10"/>
<path d="M-470.333 378.006C-468.235 376.168 -182.228 377.161 406.45 633.578C995.127 889.994 1290.55 22.7685 1294.57 9.1866" stroke="#6C1893" stroke-width="1.11256" stroke-miterlimit="10"/>
<path d="M-469.925 367.397C-469.925 367.397 -179.001 383.634 403.912 644.366C986.825 905.099 1287.36 1.00002 1287.36 1.00002" stroke="#6C1893" stroke-width="1.11256" stroke-miterlimit="10"/>
<path d="M-465.377 386.502C-464.428 384.737 -169.545 368.946 403.416 627.959C976.378 886.972 1275.49 48.0209 1289.88 40.0408" stroke="#6C1893" stroke-width="1.11256" stroke-miterlimit="10"/>
<path d="M-460.828 405.621C-458.93 402.093 -160.078 354.283 402.922 611.579C965.922 868.874 1263.64 95.0432 1292.41 79.0844" stroke="#6C1893" stroke-width="1.11256" stroke-miterlimit="10"/>
<path d="M-456.279 424.729C-453.432 419.437 -150.611 339.609 402.418 595.176C955.447 850.743 1251.77 142.043 1294.93 118.129" stroke="#6C1893" stroke-width="1.11256" stroke-miterlimit="10"/>
<path d="M-451.732 443.831C-447.944 436.776 -141.147 324.917 401.922 578.778C944.991 832.64 1239.89 189.063 1297.44 157.168" stroke="#B14BE0" stroke-width="1.11256" stroke-miterlimit="10"/>
<path d="M-447.184 462.94C-442.447 454.122 -131.681 310.244 401.426 562.375C934.532 814.507 1228.02 236.076 1299.96 196.201" stroke="#6C1893" stroke-width="1.11256" stroke-miterlimit="10"/>
<path d="M-442.627 482.045C-436.94 471.462 -122.216 295.556 400.931 545.982C924.078 796.408 1216.16 283.097 1302.48 235.244" stroke="#6C1893" stroke-width="1.11256" stroke-miterlimit="10"/>
<path d="M-438.08 501.148C-431.444 488.801 -112.751 280.876 400.435 529.585C913.621 778.293 1204.29 330.104 1305 274.283" stroke="#6C1893" stroke-width="1.11256" stroke-miterlimit="10"/>
<path d="M-433.531 520.255C-425.946 506.144 -103.285 266.189 399.94 513.179C903.165 760.17 1192.42 377.115 1307.51 313.315" stroke="#6C1893" stroke-width="1.11256" stroke-miterlimit="10"/>
<path d="M-428.982 539.373C-420.448 523.498 -93.8189 251.525 399.444 496.786C892.707 742.046 1180.55 424.138 1310.03 352.357" stroke="#6C1893" stroke-width="1.11256" stroke-miterlimit="10"/>
<path d="M-424.434 558.479C-414.951 540.84 -84.3524 236.849 398.94 480.393C882.233 723.937 1168.68 471.16 1312.55 391.401" stroke="#6C1893" stroke-width="1.11256" stroke-miterlimit="10"/>
<path d="M-419.886 577.587C-409.453 558.184 -74.8874 222.163 398.444 463.989C871.776 705.815 1156.81 518.16 1315.07 430.433" stroke="#6C1893" stroke-width="1.11256" stroke-miterlimit="10"/>
<path d="M-415.329 596.69C-403.956 575.524 -65.4216 207.485 397.958 447.592C861.338 687.699 1144.95 565.179 1317.6 469.485" stroke="#B14BE0" stroke-width="1.11256" stroke-miterlimit="10"/>
<path d="M-410.781 615.797C-398.459 592.867 -55.9567 192.798 397.453 431.189C850.863 669.579 1133.07 612.192 1320.11 508.517" stroke="#6C1893" stroke-width="1.11256" stroke-miterlimit="10"/>
<path d="M-406.233 634.907C-392.962 610.213 -46.4909 178.126 396.958 414.799C840.407 651.472 1121.21 659.217 1322.63 547.563" stroke="#6C1893" stroke-width="1.11256" stroke-miterlimit="10"/>
<path d="M-401.685 654.009C-387.465 627.551 -37.0248 163.445 396.462 398.388C829.949 633.331 1109.34 706.21 1325.15 586.589" stroke="#6C1893" stroke-width="1.11256" stroke-miterlimit="10"/>
<path d="M-397.137 673.116C-381.967 644.894 -27.5595 148.758 395.958 381.997C819.476 615.236 1097.46 753.235 1327.66 625.633" stroke="#6C1893" stroke-width="1.11256" stroke-miterlimit="10"/>
<path d="M-392.588 692.235C-376.469 662.249 -18.1021 134.097 395.463 365.604C809.027 597.112 1085.59 800.258 1330.18 664.677" stroke="#6C1893" stroke-width="1.11256" stroke-miterlimit="10"/>
<path d="M-388.03 711.338C-370.962 679.588 -8.62776 119.405 394.977 349.207C798.582 579.009 1073.74 847.276 1332.71 703.717" stroke="#6C1893" stroke-width="1.11256" stroke-miterlimit="10"/>
<path d="M-383.483 730.445C-365.475 696.932 0.837781 104.73 394.471 332.804C788.105 560.877 1061.86 894.276 1335.22 742.75" stroke="#6C1893" stroke-width="1.11256" stroke-miterlimit="10"/>
<path d="M-378.935 749.552C-359.978 714.275 10.3035 90.0552 393.976 316.411C777.649 542.767 1049.99 941.3 1337.74 781.793" stroke="#6C1893" stroke-width="1.11256" stroke-miterlimit="10"/>
<path d="M-374.387 768.656C-354.481 731.616 19.7681 75.3652 393.48 300.003C767.191 524.641 1038.12 988.308 1340.26 820.834" stroke="#6C1893" stroke-width="1.11256" stroke-miterlimit="10"/>
<defs>
<linearGradient id="paint0_linear_6_8973" x1="-424.977" y1="180.672" x2="1406.44" y2="421.336" gradientUnits="userSpaceOnUse">
<stop stop-color="#6C1893"/>
<stop offset="1" stop-color="#B14BE0"/>
</linearGradient>
<linearGradient id="paint1_linear_6_8973" x1="-430.873" y1="187.417" x2="1402.14" y2="409.674" gradientUnits="userSpaceOnUse">
<stop stop-color="#6C1893"/>
<stop offset="1" stop-color="#6C1893"/>
</linearGradient>
<linearGradient id="paint2_linear_6_8973" x1="-441.708" y1="201.385" x2="1393.59" y2="385.681" gradientUnits="userSpaceOnUse">
<stop stop-color="#6C1893"/>
<stop offset="1" stop-color="#B14BE0"/>
</linearGradient>
<linearGradient id="paint3_linear_6_8973" x1="-468.88" y1="276.802" x2="1360.26" y2="327.904" gradientUnits="userSpaceOnUse">
<stop stop-color="#6C1893"/>
<stop offset="1" stop-color="#6C1893"/>
</linearGradient>
<linearGradient id="paint4_linear_6_8973" x1="-465.932" y1="499.093" x2="1329.9" y2="401.219" gradientUnits="userSpaceOnUse">
<stop stop-color="#6C1893"/>
<stop offset="1" stop-color="#B14BE0"/>
</linearGradient>
<linearGradient id="paint5_linear_6_8973" x1="-462.099" y1="525.324" x2="1327.55" y2="409.331" gradientUnits="userSpaceOnUse">
<stop stop-color="#6C1893"/>
<stop offset="1" stop-color="#B14BE0"/>
</linearGradient>
</defs>
</svg>
