<svg width="79" height="80" viewBox="0 0 79 80" fill="none" xmlns="http://www.w3.org/2000/svg">
<path fill-rule="evenodd" clip-rule="evenodd" d="M17.9527 35.913C20.664 35.4306 23.4141 35.195 26.1688 35.209V35.2139C31.7234 35.2139 35.8142 35.7443 39.9049 36.2747C43.9956 36.8052 48.0863 37.3356 53.641 37.3356C68.6856 37.3356 79 31.254 79 18.6654C79 6.08164 70.4087 0 57.8675 0C37.3867 0 20.1845 15.4779 17.9527 35.913Z" fill="#B14BE0"/>
<path d="M25.359 42.6644C10.3144 42.6644 0 48.7509 0 61.3346C0 73.9184 8.59125 80 21.1325 80C41.6132 80 58.8155 64.527 61.0473 44.087C58.336 44.5694 55.5859 44.805 52.8313 44.791C41.7219 44.791 36.4634 42.6644 25.359 42.6644Z" fill="#6C1893"/>
</svg>
